# xmcd
#
# Track frame offsets:
#	150
#	16954
#	35525
#	51925
#	66406
#	81626
#	103426
#	121312
#	139904
#	158244
#	177717
#	194502
#
# Disc length: 2848 seconds
#
# Revision: 0
# Processed by: cddbd v1.5.2PL0 Copyright (c) Steve Scherf et al.
# Submitted via: audiograbber 1.83.01
#
DISCID=bb0b1e0c
DTITLE=CDPool - Street October 09 CD1
DYEAR=2009
DGENRE=R&B
TTITLE0=Cheryl Cole - Fight For This Love
TTITLE1=Troy Songz - LOL, Smiley Face
TTITLE2=Janet Jackson - Make Me
TTITLE3=Crazy Cousinz Ft MC Versatile - Funky Anthem (Agent X Re-Rub)
TTITLE4=Tah Mac Ft Mutya - Give Back (Twisted Twins Remix)
TTITLE5=BB Boogie - Tell Him Again (Bugz In The Attic Remix)
TTITLE6=Skepta Ft Jay Sean - Lush (H 'two' O Meet TwoFace Bassline Mix)
TTITLE7=Wiley Ft England 10 - She Likes (Skepta Remix)
TTITLE8=Rainboy - Women Of The Wind (Witty Boy UK Funky Remix)
TTITLE9=Ali King Ft Fabolous - Losing My Mind (Mixshow Edit)
TTITLE10=Private - My Secret Lover (Diplo Remix)
TTITLE11=Ziggi - Ganga Smoke
EXTD=
EXTT0=
EXTT1=
EXTT2=
EXTT3=
EXTT4=
EXTT5=
EXTT6=
EXTT7=
EXTT8=
EXTT9=
EXTT10=
EXTT11=
PLAYORDER=
